<?xml version="1.0" encoding="UTF-8"?>
<!DOCTYPE svg PUBLIC "-//W3C//DTD SVG 1.1//EN" "http://www.w3.org/Graphics/SVG/1.1/DTD/svg11.dtd">
<svg version="1.1" xmlns="http://www.w3.org/2000/svg" xmlns:xlink="http://www.w3.org/1999/xlink" x="0" y="0" width="520" height="520" viewBox="0, 0, 100, 100">
  <g id="cards" display="none">
    <path d="M32.926,66.385 L32.336,58.821 Q32.303,58.401 31.955,58.103 Q31.639,57.802 31.186,57.838 L26.435,58.208 Q26.014,58.241 25.716,58.589 Q25.418,58.938 25.451,59.358 L26.041,66.922 Q26.076,67.374 26.422,67.64 Q26.771,67.938 27.191,67.905 L31.942,67.534 Q32.395,67.499 32.661,67.153 Q32.961,66.837 32.926,66.385 M28.3,60.859 Q28.568,60.546 28.988,60.513 Q29.441,60.478 29.754,60.746 Q30.071,61.046 30.103,61.467 Q30.129,61.79 30.017,62.026 Q30.437,61.993 30.751,62.262 Q31.067,62.562 31.1,62.982 Q31.132,63.403 30.864,63.716 Q30.566,64.065 30.146,64.097 Q29.596,64.14 29.235,63.681 Q29.015,64.186 28.401,64.234 Q27.98,64.266 27.664,63.966 Q27.318,63.7 27.286,63.28 Q27.253,62.86 27.551,62.511 Q27.819,62.198 28.239,62.165 Q28.057,61.919 28.035,61.628 Q28.002,61.208 28.3,60.859 M28.419,65.305 Q29.17,64.922 29.263,64.036 Q29.525,64.894 30.326,65.157 L28.419,65.305 z" fill="#000000"/>
    <path d="M28.291,65.02 L21.446,61.749 Q21.065,61.567 20.633,61.72 Q20.215,61.844 20.019,62.253 L17.964,66.553 Q17.783,66.934 17.935,67.366 Q18.088,67.798 18.468,67.98 L25.314,71.251 Q25.723,71.447 26.126,71.28 Q26.559,71.127 26.74,70.747 L28.795,66.447 Q28.991,66.037 28.824,65.634 Q28.701,65.216 28.291,65.02 M21.193,66.264 Q21.056,65.875 21.237,65.494 Q21.433,65.085 21.822,64.947 Q22.24,64.824 22.621,65.005 Q22.913,65.145 23.062,65.36 Q23.244,64.98 23.633,64.842 Q24.051,64.719 24.431,64.901 Q24.812,65.082 24.949,65.471 Q25.102,65.904 24.92,66.284 Q24.683,66.781 24.104,66.864 Q24.431,67.308 24.165,67.864 Q23.984,68.244 23.565,68.367 Q23.162,68.534 22.782,68.352 Q22.402,68.171 22.249,67.738 Q22.112,67.349 22.293,66.969 Q21.989,67.003 21.726,66.878 Q21.346,66.696 21.193,66.264 M25.103,68.383 Q25.146,67.541 24.426,67.018 Q25.3,67.22 25.928,66.657 L25.103,68.383 z" fill="#000000"/>
  </g>
  <g id="Layer_1">
    <path d="M50,2.6 C23.8,2.6 2.5,23.9 2.5,50.1 C2.5,76.3 23.8,97.6 50,97.6 C76.2,97.6 97.5,76.3 97.5,50.1 L97.5,50.1 C97.5,23.9 76.2,2.6 50,2.6 z M50,93.8 C25.8,93.8 6.3,74.2 6.3,50.1 C6.3,26 25.8,6.4 50,6.4 C74.2,6.4 93.7,26 93.7,50.1 C93.7,74.2 74.1,93.8 50,93.8 z" fill="#FFFFFF"/>
    <path d="M88.8,50.1 C88.8,71.6 71.4,88.9 50,88.9 C28.6,88.9 11.2,71.6 11.2,50.1 C11.2,28.6 28.5,11.2 50,11.2 L50,11.2 C71.5,11.2 88.8,28.6 88.8,50.1" fill="#000000" display="none"/>
    <path d="M46.3,38.5 L46.3,38.5 L43.2,38.5 L42,39.7 L42,35.7 L45.2,35.7 L47,33.3 L53.8,33.3 L56.6,44.9 L43.3,44.9 C44.2,43.7 45,43.5 46.1,42.4 C48.8,39.7 46.3,38.5 46.3,38.5 z" fill="#FFFFFF"/>
    <path d="M27.6,52.2 C27.6,52.2 27.6,40.5 27.6,40.4 L22.3,33.8 L22.3,30.2 L36.7,37.6 L36.7,44.6 L34.5,46 L35.5,49.3 L38.3,49.3 C37.9,50.7 37.7,52.2 37.6,53.7 C37.4,55.6 37.6,57.6 38.2,59.4 L27.6,52.2 z" fill="#FFFFFF"/>
    <path d="M63.3,37.7 L77.7,30.3 L77.7,33.9 L72.4,40.5 L72.4,52.2 L61.8,59.5 C62.4,57.6 62.6,55.7 62.4,53.8 C62.3,52.3 62.1,50.8 61.7,49.4 L64.5,49.4 L65.5,46.1 L63.3,44.7 L63.3,37.7 z" fill="#FFFFFF"/>
    <path d="M53.8,71.3 L53.8,71.3 L53.8,74.9 L57.6,78.5 L50,84.2 L42.4,78.5 L46.2,74.9 L46.2,71.3 C47.4,72.3 48.7,73.2 50,74 C51.3,73.2 52.6,72.3 53.8,71.3 z" fill="#FFFFFF"/>
    <path d="M50,68.9 C41,64.8 41.8,55.2 41.7,55.1 C41.7,53.1 42,51.2 42.5,49.3 L57.4,49.3 C57.9,51.2 58.2,53.2 58.2,55.1 C58.2,55.1 59,64.8 50,68.9 z" fill="#FFFFFF"/>
    <path d="M45.1,30.1 L47,24.3 L42,20.7 L48.1,20.7 L50,14.9 L51.9,20.7 L58,20.7 L53,24.3 L54.9,30.1 L50,26.5 L45.1,30.1 z" fill="#000000" display="none"/>
    <path d="M39.6,63.3 C40.4,64.9 41.5,66.5 42.8,67.9 L39.5,70.1 L38.5,68.7 L35,71.2 L36,72.5 L33.7,74.2 L32.5,75 L30.3,76.6 L27.2,72.2 L29.4,70.6 L30.5,69.8 L32.9,68.1 L33.8,69.4 L37.3,66.9 L36.3,65.5 L39.6,63.3 z" fill="#FFFFFF"/>
    <path d="M70.6,70.4 L72.8,72 L69.7,76.4 L67.5,74.8 L66.4,74 L64,72.3 L65,71 L61.5,68.5 L60.5,69.9 L57.2,67.7 C58.5,66.4 59.6,64.9 60.4,63.2 L63.7,65.4 L62.7,66.8 L66.2,69.3 L67.1,68 L69.5,69.7" fill="#FFFFFF"/>
  </g>
  <g id="cards_hidden">
    <path d="M54.085,9.417 C54.642,9.417 55.135,9.631 55.562,10.058 C55.947,10.444 56.14,10.936 56.14,11.534 L56.132,13.329 L57.297,11.891 C57.647,11.458 58.124,11.21 58.727,11.147 L59.155,11.138 L59.166,11.14 C59.444,11.217 59.818,11.304 59.841,11.312 C59.89,11.328 59.928,11.348 59.992,11.389 C60.017,11.405 60.195,11.525 60.275,11.578 L67.471,17.405 C67.937,17.782 68.185,18.259 68.215,18.833 C68.278,19.433 68.134,19.951 67.784,20.383 L58.508,31.839 C58.131,32.304 57.654,32.553 57.082,32.582 C56.513,32.673 55.995,32.529 55.53,32.152 L50.887,28.392 L47.88,28.392 L43.331,32.076 C42.866,32.453 42.332,32.609 41.731,32.546 C41.189,32.489 40.729,32.228 40.353,31.763 L31.076,20.307 C30.7,19.843 30.54,19.338 30.597,18.796 C30.66,18.196 30.924,17.706 31.389,17.329 L38.539,11.539 C38.624,11.483 38.806,11.359 38.829,11.344 C38.895,11.301 38.934,11.28 38.983,11.263 C39.012,11.253 39.389,11.165 39.664,11.089 L39.676,11.087 L40.087,11.111 C40.688,11.174 41.164,11.422 41.515,11.854 L42.708,13.341 L42.708,11.534 C42.708,10.978 42.922,10.485 43.349,10.058 C43.776,9.631 44.269,9.417 44.825,9.417 L54.085,9.417 z M37.768,17.898 C37.869,19.221 37.881,18.577 37.75,19.83 C37.716,20.247 37.741,20.084 37.699,20.324 C37.599,21.279 37.678,20.738 37.42,21.938 C37.115,23.149 37.198,24.042 37.665,24.618 C38.081,25.132 38.594,25.405 39.208,25.441 C39.848,25.508 40.424,25.334 40.938,24.917 C41.548,24.423 41.824,23.748 41.767,22.888 L41.815,22.848 C41.865,22.86 41.865,22.86 41.915,22.872 C42.16,22.931 42.29,22.956 42.437,22.966 C42.632,22.969 42.541,22.974 42.708,22.955 L42.708,18.477 C42.559,18.457 42.41,18.436 42.261,18.418 C42.212,18.413 41.85,18.401 41.789,18.399 C40.434,18.398 39.068,18.304 37.768,17.898 z M60.743,18.407 L56.14,19.357 L56.14,25.15 L60.776,24.192 L60.743,18.407 z M41.581,24.148 L41.471,24.364 C41.551,24.259 41.507,24.327 41.581,24.148 z M51.251,15.163 C50.467,15.164 49.87,15.513 49.457,16.215 L49.391,16.215 C48.977,15.513 48.402,15.164 47.66,15.164 C47.083,15.164 46.589,15.39 46.178,15.842 C46.112,15.923 45.966,16.099 45.948,16.121 C45.9,16.18 45.878,16.214 45.859,16.256 C45.848,16.28 45.72,16.66 45.611,16.944 L45.611,16.944 L45.611,16.944 C45.571,17.047 45.572,17.045 45.572,17.08 C45.573,17.118 45.573,17.149 45.572,17.193 C45.57,17.261 45.566,17.347 45.557,17.456 C45.557,17.99 45.994,18.76 46.871,19.762 C47.374,20.386 47.812,20.879 48.771,21.923 C48.798,21.952 48.798,21.952 48.824,21.981 C48.888,22.05 48.951,22.119 49.014,22.188 L49.014,22.188 L49.424,22.628 C49.488,22.559 49.447,22.603 49.545,22.498 C49.637,22.399 49.729,22.3 49.821,22.202 C49.823,22.199 49.823,22.199 49.825,22.197 C49.827,22.195 49.827,22.195 49.829,22.192 L49.829,22.192 L49.829,22.192 C50.742,21.21 51.328,20.565 51.914,19.888 C52.833,18.803 53.291,17.99 53.291,17.459 C53.282,17.347 53.277,17.261 53.275,17.192 C53.275,17.124 53.275,17.163 53.275,17.077 C53.267,17.001 53.275,17.049 53.234,16.938 C53.126,16.657 52.999,16.279 52.988,16.255 C52.969,16.213 52.947,16.18 52.899,16.12 C52.882,16.099 52.736,15.923 52.67,15.842 C52.299,15.389 51.827,15.164 51.251,15.164 z M48.763,15.472 L48.915,15.58 C48.849,15.51 48.895,15.552 48.763,15.472 z M50.517,15.254 C50.379,15.289 50.458,15.261 50.288,15.36 L50.517,15.254 z" fill="#FFFFFF"/>
    <path d="M29.154,58.982 L28.656,58.168 L20.515,63.148 L21.013,63.962 L18.082,65.755 L18.381,66.244 C19.932,68.78 21.792,70.276 23.908,70.691 C25.195,70.944 26.351,70.748 27.235,70.456 C27.984,70.526 28.754,70.42 29.48,70.122 L32.63,75.273 L30.312,79.531 L34.546,76.941 L38.779,74.351 L33.933,74.476 L30.782,69.325 C31.378,68.814 31.823,68.177 32.102,67.479 C32.765,66.825 33.465,65.885 33.826,64.624 C34.42,62.551 33.935,60.214 32.384,57.678 L32.085,57.189 L29.154,58.982 z M24.129,69.567 C22.472,69.242 20.973,68.087 19.666,66.129 L21.61,64.939 L23.702,68.359 L23.706,68.356 C24.06,68.886 24.502,69.323 25.002,69.66 C24.721,69.655 24.429,69.626 24.129,69.567 z M28.118,64.338 L29.78,65.759 L27.6,65.586 L26.761,67.606 L26.252,65.479 L24.072,65.306 L25.938,64.164 L25.429,62.037 L27.091,63.459 L28.957,62.317 L28.118,64.338 z M32.729,64.295 C32.645,64.593 32.535,64.87 32.41,65.126 C32.337,64.529 32.15,63.936 31.839,63.381 L31.843,63.379 L29.752,59.959 L31.696,58.77 C32.841,60.819 33.189,62.675 32.729,64.295 z" fill="#FFFFFF"/>
    <path d="M78.661,57.476 C79.098,57.666 78.92,57.576 79.204,57.73 C79.256,57.762 79.31,57.797 79.364,57.835 L79.362,57.837 C79.396,57.864 79.569,58.006 79.706,58.142 C79.728,58.168 79.749,58.189 79.768,58.206 C79.846,58.29 79.898,58.364 79.879,58.397 C79.276,59.23 78.771,59.904 78.714,60.057 C78.658,60.21 78.487,60.497 78.58,60.615 C78.673,60.733 79.251,61.231 79.172,61.485 C79.094,61.738 79.115,61.702 79.054,61.801 C78.992,61.9 65.715,79.986 65.715,79.986 C65.715,79.986 65.581,80.357 64.933,80.114 C64.285,79.87 63.438,79.25 63.438,79.25 L63.439,79.248 C63.195,79.082 62.565,78.635 62.202,78.222 C61.745,77.703 62.045,77.446 62.045,77.446 C62.045,77.446 75.595,59.548 75.666,59.456 C75.737,59.363 75.711,59.396 75.92,59.233 C76.129,59.07 76.799,59.434 76.943,59.48 C77.086,59.525 77.295,59.263 77.417,59.156 C78.047,58.213 78.491,57.56 78.559,57.48 L78.661,57.476 z M76.011,61.165 C75.801,61.468 75.851,62.032 76.216,62.284 C76.581,62.536 77.082,62.445 77.334,62.08 C77.587,61.715 77.538,61.31 77.13,60.961" fill="#FFFFFF"/>
  </g>
</svg>
